<svg xmlns="http://www.w3.org/2000/svg" width="128" height="128" viewBox="0 0 128 128">
  <rect width="124" height="124" x="2" y="2" fill="#1a0a1e" stroke="#3d1a4a" stroke-width="4" rx="14"/>
  <circle cx="64" cy="62" r="32" fill="#4a1035" opacity="0.5"/>
  <circle cx="64" cy="62" r="20" fill="#6b1845" opacity="0.3"/>
  <path d="M64 96 C40 76 22 60 22 46 C22 34 32 26 42 26 C50 26 57 30 64 40 C71 30 78 26 86 26 C96 26 106 34 106 46 C106 60 88 76 64 96Z" fill="#d4365c"/>
  <path d="M64 88 C44 72 30 58 30 48 C30 38 38 32 46 32 C52 32 58 36 64 44 C70 36 76 32 82 32 C90 32 98 38 98 48 C98 58 84 72 64 88Z" fill="#e8547a" opacity="0.6"/>
  <path d="M54 42 C50 38 44 38 42 42" stroke="#f8a0b8" stroke-width="2.5" stroke-linecap="round" fill="none" opacity="0.7"/>
</svg>
