# Blender 4.5.2 LTS
# www.blender.org
mtllib cash_register_acc.mtl
o cash_register_acc
v -2.926426 0.990426 1.071621
v -2.926426 0.990426 0.975706
v -2.930504 1.029562 1.071621
v -2.930504 1.029562 0.979936
v -2.926426 1.029562 1.071621
v -2.926426 1.029562 0.975706
v -2.930504 0.994710 1.071621
v -2.930504 0.994710 0.979936
v -2.920805 0.986425 1.075851
v -2.920805 1.038542 1.071621
v -2.920805 1.038542 1.075851
v -2.920805 0.986425 1.071621
v -2.965234 1.021283 0.979936
v -2.965234 0.994710 0.979936
v -2.965234 1.021283 1.071621
v -2.967813 1.021283 1.071621
v -2.967813 1.021283 0.979936
v -2.967813 0.994710 0.979936
v -2.967813 0.994710 1.071621
v -2.965234 0.994710 1.071621
v -3.000870 1.021283 0.979936
v -3.000870 0.994710 0.979936
v -3.000870 1.021283 1.071621
v -3.003449 1.021283 1.071621
v -3.003450 1.021283 0.979936
v -3.003450 0.994710 0.979936
v -3.003449 0.994710 1.071621
v -3.000870 0.994710 1.071621
v -3.148388 0.990426 1.071621
v -3.148388 0.990426 0.975706
v -3.144310 1.029562 1.071621
v -3.144310 1.029562 0.979936
v -3.148388 1.029562 1.071621
v -3.148388 1.029562 0.975706
v -3.144310 0.994710 1.071621
v -3.144310 0.994710 0.979936
v -3.154009 0.986425 1.075851
v -3.154009 1.038542 1.071621
v -3.154009 1.038542 1.075851
v -3.154009 0.986425 1.071621
v -3.111236 1.021283 0.979936
v -3.111236 0.994710 0.979936
v -3.111236 1.021283 1.071621
v -3.108657 1.021283 1.071621
v -3.108657 1.021283 0.979936
v -3.108657 0.994710 0.979936
v -3.108657 0.994710 1.071621
v -3.111236 0.994710 1.071621
v -3.073927 1.021283 0.979936
v -3.073927 0.994710 0.979936
v -3.073927 1.021283 1.071621
v -3.071348 1.021283 1.071621
v -3.071348 1.021283 0.979936
v -3.071348 0.994710 0.979936
v -3.071348 0.994710 1.071621
v -3.073927 0.994710 1.071621
v -3.038290 1.021283 0.979936
v -3.038290 0.994710 0.979936
v -3.038290 1.021283 1.071621
v -3.035711 1.021283 1.071621
v -3.035711 1.021283 0.979936
v -3.035711 0.994710 0.979936
v -3.035711 0.994710 1.071621
v -3.038290 0.994710 1.071621
v -3.144310 1.016381 1.012440
v -3.144310 0.994710 1.012440
v -3.111236 1.016381 1.012440
v -3.111236 1.016381 1.009861
v -3.144310 1.016381 1.009861
v -3.144310 0.994710 1.009861
v -3.111236 0.994710 1.009861
v -3.111236 0.994710 1.012440
v -3.144310 1.016381 1.044214
v -3.144310 0.994710 1.044214
v -3.111236 1.016381 1.044214
v -3.111236 1.016381 1.041635
v -3.144310 1.016381 1.041635
v -3.144310 0.994710 1.041635
v -3.111236 0.994710 1.041635
v -3.111236 0.994710 1.044214
v -2.959584 1.020693 1.079014
v -2.952944 1.016860 1.079014
v -2.952944 1.009193 1.079014
v -2.959584 1.005359 1.079014
v -2.966224 1.009193 1.079014
v -2.966224 1.016860 1.079014
v -2.952299 1.017232 1.075851
v -2.959584 1.021438 1.075851
v -2.952299 1.008820 1.075851
v -2.959584 1.004615 1.075851
v -2.966868 1.008820 1.075851
v -2.966868 1.017232 1.075851
vn -0.0000 -1.0000 -0.0000
vn 1.0000 -0.0000 -0.0000
vn -0.0000 -0.0000 -1.0000
vn -0.0000 1.0000 -0.0000
vn -1.0000 -0.0000 -0.0000
vn -0.0000 -0.0000 1.0000
vn -0.9798 -0.0000 0.1998
vn 0.4899 -0.8486 0.1998
vn 0.4899 0.8486 0.1998
vn -0.4899 0.8486 0.1998
vn -0.4899 -0.8486 0.1998
vn 0.9798 -0.0000 0.1998
vt 0.122335 0.948599
vt 0.122125 0.948333
vt 0.034316 0.964728
vt 0.034316 0.964579
vt 0.127649 0.957912
vt 0.124713 0.948507
vt 0.124554 0.948679
vt 0.034316 0.961245
vt 0.124316 0.964728
vt 0.127649 0.954579
vt 0.127649 0.952289
vt 0.210000 0.960000
vt 0.123333 0.956667
s 0
usemtl palette1
f 37/1/1 40/2/1 12/2/1 9/1/1
f 1/3/2 2/3/2 6/3/2 5/3/2
f 30/3/3 34/3/3 6/3/3 2/3/3
f 4/4/4 3/4/4 5/3/4 6/3/4
f 6/3/4 34/3/4 32/4/4 4/4/4
f 3/5/5 4/5/5 8/5/5 7/5/5
f 38/6/4 39/7/4 11/7/4 10/6/4
f 9/1/2 12/2/2 10/6/2 11/7/2
f 8/8/4 36/8/4 35/8/4 7/8/4
f 1/9/1 29/9/1 30/9/1 2/9/1
f 12/4/3 40/4/3 38/4/3 10/4/3
f 11/9/6 39/9/6 37/9/6 9/9/6
f 13/10/4 17/11/4 16/11/4 15/10/4
f 14/10/2 13/10/2 15/10/2 20/10/2
f 17/11/5 18/11/5 19/11/5 16/11/5
f 21/10/4 25/11/4 24/11/4 23/10/4
f 22/10/2 21/10/2 23/10/2 28/10/2
f 25/11/5 26/11/5 27/11/5 24/11/5
f 29/3/5 33/3/5 34/3/5 30/3/5
f 32/4/4 34/3/4 33/3/4 31/4/4
f 31/5/2 35/5/2 36/5/2 32/5/2
f 37/1/5 39/7/5 38/6/5 40/2/5
f 49/10/4 51/10/4 52/11/4 53/11/4
f 50/10/5 56/10/5 51/10/5 49/10/5
f 53/11/2 52/11/2 55/11/2 54/11/2
f 45/11/2 44/11/2 47/11/2 46/11/2
f 42/10/5 48/10/5 43/10/5 41/10/5
f 41/10/4 43/10/4 44/11/4 45/11/4
f 57/10/4 59/10/4 60/11/4 61/11/4
f 58/10/5 64/10/5 59/10/5 57/10/5
f 61/11/2 60/11/2 63/11/2 62/11/2
f 32/5/6 36/5/6 8/5/6 4/5/6
f 69/11/3 68/11/3 71/11/3 70/11/3
f 66/10/6 72/10/6 67/10/6 65/10/6
f 65/10/4 67/10/4 68/11/4 69/11/4
f 77/11/3 76/11/3 79/11/3 78/11/3
f 74/10/6 80/10/6 75/10/6 73/10/6
f 73/10/4 75/10/4 76/11/4 77/11/4
f 82/12/6 81/12/6 86/12/6 85/12/6 84/12/6 83/12/6
f 85/13/7 86/13/7 92/13/7 91/13/7
f 83/13/8 84/13/8 90/13/8 89/13/8
f 81/13/9 82/13/9 87/13/9 88/13/9
f 86/13/10 81/13/10 88/13/10 92/13/10
f 84/13/11 85/13/11 91/13/11 90/13/11
f 82/13/12 83/13/12 89/13/12 87/13/12
