# Blender 4.5.2 LTS
# www.blender.org
mtllib coffee_cup_3.mtl
o coffee_cup_3
v 0.773334 0.057487 1.504322
v 0.807839 0.057487 1.513568
v 0.833099 0.057487 1.538828
v 0.842344 0.057487 1.573333
v 0.833099 0.057487 1.607839
v 0.807839 0.057487 1.633098
v 0.773334 0.057487 1.642344
v 0.738828 0.057487 1.633098
v 0.713568 0.057487 1.607839
v 0.704323 0.057487 1.573333
v 0.713568 0.057487 1.538828
v 0.738828 0.057487 1.513568
v 0.773334 -0.027957 1.537189
v 0.791406 -0.027957 1.542032
v 0.804635 -0.027957 1.555261
v 0.809478 -0.027957 1.573333
v 0.804635 -0.027957 1.591405
v 0.791406 -0.027957 1.604635
v 0.773334 -0.027957 1.609477
v 0.755262 -0.027957 1.604635
v 0.742032 -0.027957 1.591405
v 0.737190 -0.027957 1.573333
v 0.742032 -0.027957 1.555261
v 0.755262 -0.027957 1.542032
v 0.773334 -0.014143 1.517043
v 0.773334 0.024112 1.497422
v 0.811289 0.024112 1.507592
v 0.801479 -0.014143 1.524584
v 0.839074 0.024112 1.535378
v 0.822082 -0.014143 1.545188
v 0.849245 0.024112 1.573333
v 0.829624 -0.014143 1.573333
v 0.839074 0.024112 1.611289
v 0.822082 -0.014143 1.601478
v 0.811289 0.024112 1.639074
v 0.801479 -0.014143 1.622082
v 0.773334 0.024112 1.649244
v 0.773334 -0.014143 1.629624
v 0.735378 0.024112 1.639074
v 0.745188 -0.014143 1.622082
v 0.707593 0.024112 1.611289
v 0.724585 -0.014143 1.601478
v 0.697422 0.024112 1.573333
v 0.717043 -0.014143 1.573333
v 0.707593 0.024112 1.535378
v 0.724585 -0.014143 1.545188
v 0.735378 0.024112 1.507592
v 0.745188 -0.014143 1.524584
v 0.811289 0.057487 1.507592
v 0.773334 0.057487 1.497422
v 0.839074 0.057487 1.535378
v 0.849245 0.057487 1.573333
v 0.839074 0.057487 1.611289
v 0.811289 0.057487 1.639074
v 0.773334 0.057487 1.649244
v 0.735378 0.057487 1.639074
v 0.707593 0.057487 1.611289
v 0.697422 0.057487 1.573333
v 0.707593 0.057487 1.535378
v 0.735378 0.057487 1.507592
v 0.806899 0.050372 1.515196
v 0.773334 0.050372 1.506202
v 0.831471 0.050372 1.539768
v 0.840465 0.050372 1.573333
v 0.831471 0.050372 1.606899
v 0.806899 0.050372 1.631471
v 0.773334 0.050372 1.640464
v 0.739768 0.050372 1.631471
v 0.715196 0.050372 1.606899
v 0.706202 0.050372 1.573333
v 0.715196 0.050372 1.539768
v 0.739768 0.050372 1.515196
v 0.846461 0.051809 1.568492
v 0.846461 0.051809 1.578174
v 0.837270 0.003188 1.568492
v 0.837270 0.003188 1.578174
v 0.860469 0.054952 1.568492
v 0.878261 0.039356 1.568492
v 0.873050 0.050384 1.568492
v 0.878261 0.039356 1.578174
v 0.860469 0.054952 1.578174
v 0.873050 0.050384 1.578174
v 0.878261 0.021704 1.568492
v 0.854413 0.005449 1.568492
v 0.870365 0.009923 1.568492
v 0.854413 0.005449 1.578174
v 0.878261 0.021704 1.578174
v 0.870365 0.009923 1.578174
v 0.847438 0.045759 1.578174
v 0.847438 0.045759 1.568492
v 0.839551 0.008792 1.578174
v 0.839551 0.008792 1.568492
v 0.868923 0.045854 1.578174
v 0.872281 0.038015 1.578174
v 0.872281 0.038015 1.568492
v 0.868923 0.045854 1.568492
v 0.859893 0.048851 1.578174
v 0.859893 0.048851 1.568492
v 0.866713 0.014646 1.578174
v 0.853587 0.011320 1.578174
v 0.853587 0.011320 1.568492
v 0.866713 0.014646 1.568492
v 0.872281 0.023046 1.578174
v 0.872281 0.023046 1.568492
vn -0.9359 0.2473 -0.2508
vn -0.0000 -1.0000 -0.0000
vn 0.2319 -0.4439 -0.8655
vn 0.6336 -0.4439 -0.6336
vn 0.8655 -0.4439 -0.2319
vn 0.8655 -0.4439 0.2319
vn 0.6336 -0.4439 0.6336
vn 0.2319 -0.4439 0.8655
vn -0.2319 -0.4439 0.8655
vn -0.6336 -0.4439 0.6336
vn -0.8655 -0.4439 0.2319
vn -0.8655 -0.4439 -0.2319
vn -0.6336 -0.4439 -0.6336
vn -0.2319 -0.4439 -0.8655
vn -0.1498 -0.8154 -0.5591
vn 0.1498 -0.8154 -0.5591
vn -0.2588 -0.0000 -0.9659
vn 0.2588 -0.0000 -0.9659
vn 0.4093 -0.8154 -0.4093
vn 0.7071 -0.0000 -0.7071
vn 0.5591 -0.8154 -0.1498
vn 0.9659 -0.0000 -0.2588
vn 0.5591 -0.8154 0.1498
vn 0.9659 -0.0000 0.2588
vn 0.4093 -0.8154 0.4093
vn 0.7071 -0.0000 0.7071
vn 0.1498 -0.8154 0.5591
vn 0.2588 -0.0000 0.9659
vn -0.1498 -0.8154 0.5591
vn -0.2588 -0.0000 0.9659
vn -0.4093 -0.8154 0.4093
vn -0.7071 -0.0000 0.7071
vn -0.5591 -0.8154 0.1498
vn -0.9659 -0.0000 0.2588
vn -0.5591 -0.8154 -0.1498
vn -0.9659 -0.0000 -0.2588
vn -0.4093 -0.8154 -0.4093
vn -0.7071 -0.0000 -0.7071
vn -0.0000 1.0000 -0.0000
vn 0.6852 0.2473 0.6852
vn -0.2508 0.2473 0.9359
vn 0.6852 0.2473 -0.6852
vn -0.6852 0.2473 -0.6852
vn 0.2508 0.2473 0.9359
vn -0.6852 0.2473 0.6852
vn 0.9359 0.2473 -0.2508
vn -0.2508 0.2473 -0.9359
vn -0.9359 0.2473 0.2508
vn 0.9359 0.2473 0.2508
vn 0.2508 0.2473 -0.9359
vn 0.9041 0.4272 -0.0000
vn 0.3413 0.9400 -0.0000
vn 0.2700 -0.9629 -0.0000
vn 0.8307 -0.5568 -0.0000
vn 1.0000 -0.0000 -0.0000
vn -0.2189 0.9757 -0.0000
vn 0.1308 -0.9914 -0.0000
vn -0.9192 -0.3938 -0.0000
vn -0.3150 -0.9491 -0.0000
vn -0.2457 0.9694 -0.0000
vn -0.8335 0.5525 -0.0000
vn -1.0000 -0.0000 -0.0000
vn 0.2409 -0.9705 -0.0000
vn -0.1773 0.9842 -0.0000
vn -0.0000 -0.0000 -1.0000
vn -0.0000 -0.0000 1.0000
vt 0.119476 0.871309
vt 0.119782 0.872450
vt 0.119782 0.872450
vt 0.119476 0.871309
vt 0.122880 0.874076
vt 0.123267 0.874382
vt 0.123394 0.873633
vt 0.123750 0.872450
vt 0.123583 0.871825
vt 0.123125 0.871367
vt 0.122500 0.871200
vt 0.121875 0.871367
vt 0.121417 0.871825
vt 0.121250 0.872450
vt 0.121417 0.873075
vt 0.121875 0.873533
vt 0.125000 0.878278
vt 0.124167 0.878278
vt 0.123644 0.875614
vt 0.123245 0.874918
vt 0.123333 0.878278
vt 0.123629 0.874410
vt 0.124579 0.873650
vt 0.124900 0.872450
vt 0.124232 0.872450
vt 0.124579 0.871250
vt 0.124000 0.871584
vt 0.123700 0.870372
vt 0.123366 0.870950
vt 0.122500 0.870050
vt 0.122500 0.870718
vt 0.121300 0.870372
vt 0.121634 0.870950
vt 0.120422 0.871250
vt 0.121000 0.871584
vt 0.120100 0.872450
vt 0.120768 0.872450
vt 0.120422 0.873650
vt 0.121000 0.873316
vt 0.121300 0.874529
vt 0.121634 0.873950
vt 0.122500 0.874850
vt 0.115833 0.878278
vt 0.115833 0.879950
vt 0.115000 0.879950
vt 0.115000 0.878278
vt 0.125000 0.879950
vt 0.124167 0.879950
vt 0.123333 0.879950
vt 0.122500 0.879950
vt 0.122500 0.878278
vt 0.121667 0.879950
vt 0.121667 0.878278
vt 0.120833 0.879950
vt 0.120833 0.878278
vt 0.120000 0.879950
vt 0.120000 0.878278
vt 0.119167 0.879950
vt 0.119167 0.878278
vt 0.118333 0.879950
vt 0.118333 0.878278
vt 0.117500 0.879950
vt 0.117500 0.878278
vt 0.116667 0.879950
vt 0.116667 0.878278
vt 0.117500 0.874731
vt 0.118641 0.874426
vt 0.118700 0.874529
vt 0.117500 0.874850
vt 0.119476 0.873591
vt 0.119578 0.873650
vt 0.119900 0.872450
vt 0.119578 0.871250
vt 0.118641 0.870474
vt 0.118700 0.870372
vt 0.117500 0.870169
vt 0.117500 0.870050
vt 0.116359 0.870474
vt 0.116300 0.870372
vt 0.115524 0.871309
vt 0.115422 0.871250
vt 0.115218 0.872450
vt 0.115100 0.872450
vt 0.115524 0.873591
vt 0.115422 0.873650
vt 0.116359 0.874426
vt 0.116300 0.874529
vt 0.880707 0.348262
vt 0.852284 0.353274
vt 0.825162 0.343403
vt 0.806610 0.321293
vt 0.801599 0.292870
vt 0.811470 0.265749
vt 0.833579 0.247197
vt 0.862003 0.242185
vt 0.889124 0.252056
vt 0.907676 0.274166
vt 0.912688 0.302589
vt 0.902816 0.329710
vt 0.115524 0.873591
vt 0.116359 0.874426
vt 0.117500 0.874732
vt 0.115524 0.871309
vt 0.113333 0.873333
s 0
usemtl palette1
f 5/1/1 4/2/1 64/3/1 65/4/1
f 13/5/2 14/6/2 15/7/2 16/8/2 17/9/2 18/10/2 19/11/2 20/12/2 21/13/2 22/14/2 23/15/2 24/16/2
f 26/17/3 27/18/3 28/19/3 25/20/3
f 27/18/4 29/21/4 30/22/4 28/19/4
f 29/23/5 31/24/5 32/25/5 30/22/5
f 31/24/6 33/26/6 34/27/6 32/25/6
f 33/26/7 35/28/7 36/29/7 34/27/7
f 35/28/8 37/30/8 38/31/8 36/29/8
f 37/30/9 39/32/9 40/33/9 38/31/9
f 39/32/10 41/34/10 42/35/10 40/33/10
f 41/34/11 43/36/11 44/37/11 42/35/11
f 43/36/12 45/38/12 46/39/12 44/37/12
f 45/38/13 47/40/13 48/41/13 46/39/13
f 47/40/14 26/42/14 25/20/14 48/41/14
f 48/41/15 25/20/15 13/5/15 24/16/15
f 25/20/16 28/19/16 14/6/16 13/5/16
f 47/43/17 60/44/17 50/45/17 26/46/17
f 26/17/18 50/47/18 49/48/18 27/18/18
f 28/19/19 30/22/19 15/7/19 14/6/19
f 27/18/20 49/48/20 51/49/20 29/21/20
f 30/22/21 32/25/21 16/8/21 15/7/21
f 29/21/22 51/49/22 52/50/22 31/51/22
f 32/25/23 34/27/23 17/9/23 16/8/23
f 31/51/24 52/50/24 53/52/24 33/53/24
f 34/27/25 36/29/25 18/10/25 17/9/25
f 33/53/26 53/52/26 54/54/26 35/55/26
f 36/29/27 38/31/27 19/11/27 18/10/27
f 35/55/28 54/54/28 55/56/28 37/57/28
f 38/31/29 40/33/29 20/12/29 19/11/29
f 37/57/30 55/56/30 56/58/30 39/59/30
f 40/33/31 42/35/31 21/13/31 20/12/31
f 39/59/32 56/58/32 57/60/32 41/61/32
f 42/35/33 44/37/33 22/14/33 21/13/33
f 41/61/34 57/60/34 58/62/34 43/63/34
f 44/37/35 46/39/35 23/15/35 22/14/35
f 43/63/36 58/62/36 59/64/36 45/65/36
f 46/39/37 48/41/37 24/16/37 23/15/37
f 45/65/38 59/64/38 60/44/38 47/43/38
f 1/66/39 2/67/39 49/68/39 50/69/39
f 2/67/39 3/70/39 51/71/39 49/68/39
f 3/70/39 4/2/39 52/72/39 51/71/39
f 4/2/39 5/1/39 53/73/39 52/72/39
f 5/1/39 6/74/39 54/75/39 53/73/39
f 6/74/39 7/76/39 55/77/39 54/75/39
f 7/76/39 8/78/39 56/79/39 55/77/39
f 8/78/39 9/80/39 57/81/39 56/79/39
f 9/80/39 10/82/39 58/83/39 57/81/39
f 10/82/39 11/84/39 59/85/39 58/83/39
f 11/84/39 12/86/39 60/87/39 59/85/39
f 12/86/39 1/66/39 50/69/39 60/87/39
f 12/86/40 11/84/40 71/100/40 72/101/40
f 2/67/41 1/66/41 62/102/41 61/67/41
f 9/80/42 8/78/42 68/78/42 69/103/42
f 6/74/43 5/1/43 65/4/43 66/74/43
f 1/66/44 12/86/44 72/101/44 62/102/44
f 3/70/45 2/67/45 61/67/45 63/70/45
f 10/82/46 9/80/46 69/103/46 70/82/46
f 7/76/47 6/74/47 66/74/47 67/76/47
f 4/2/48 3/70/48 63/70/48 64/3/48
f 11/84/49 10/82/49 70/82/49 71/100/49
f 8/78/50 7/76/50 67/76/50 68/78/50
f 80/104/51 78/104/51 79/104/51 82/104/51
f 82/104/52 79/104/52 77/104/52 81/104/52
f 86/104/53 84/104/53 85/104/53 88/104/53
f 88/104/54 85/104/54 83/104/54 87/104/54
f 78/104/55 80/104/55 87/104/55 83/104/55
f 73/104/56 74/104/56 81/104/56 77/104/56
f 84/104/57 86/104/57 76/104/57 75/104/57
f 94/104/58 93/104/58 96/104/58 95/104/58
f 93/104/59 97/104/59 98/104/59 96/104/59
f 100/104/60 99/104/60 102/104/60 101/104/60
f 99/104/61 103/104/61 104/104/61 102/104/61
f 95/104/62 104/104/62 103/104/62 94/104/62
f 90/104/63 98/104/63 97/104/63 89/104/63
f 101/104/64 92/104/64 91/104/64 100/104/64
f 75/104/65 92/104/65 101/104/65 84/104/65
f 87/104/66 103/104/66 99/104/66 88/104/66
f 81/104/66 97/104/66 93/104/66 82/104/66
f 86/104/66 100/104/66 91/104/66 76/104/66
f 85/104/65 102/104/65 104/104/65 83/104/65
f 79/104/65 96/104/65 98/104/65 77/104/65
f 83/104/65 104/104/65 95/104/65 78/104/65
f 88/104/66 99/104/66 100/104/66 86/104/66
f 82/104/66 93/104/66 94/104/66 80/104/66
f 80/104/66 94/104/66 103/104/66 87/104/66
f 77/104/65 98/104/65 90/104/65 73/104/65
f 84/104/65 101/104/65 102/104/65 85/104/65
f 78/104/65 95/104/65 96/104/65 79/104/65
f 74/104/66 89/104/66 97/104/66 81/104/66
usemtl main_textures
f 61/88/39 62/89/39 72/90/39 71/91/39 70/92/39 69/93/39 68/94/39 67/95/39 66/96/39 65/97/39 64/98/39 63/99/39
