# Blender 4.5.2 LTS
# www.blender.org
mtllib coffee_cup_4.mtl
o coffee_cup_4
v 0.529857 0.010637 1.598376
v 0.461439 0.010637 1.529958
v 0.536568 0.010637 1.573333
v 0.461439 0.010637 1.616709
v 0.443106 0.010637 1.548290
v 0.443106 0.010637 1.598376
v 0.511525 0.010637 1.616709
v 0.511525 0.010637 1.529958
v 0.486482 0.010637 1.523247
v 0.529857 0.010637 1.548290
v 0.436396 0.010637 1.573333
v 0.486482 0.010637 1.623419
v 0.470932 0.037222 1.546401
v 0.502032 0.037222 1.600266
v 0.502032 0.037222 1.546401
v 0.459549 0.037222 1.588883
v 0.513415 0.037222 1.588883
v 0.470932 0.037222 1.600266
v 0.459549 0.037222 1.557784
v 0.517581 0.037222 1.573333
v 0.486482 0.037222 1.542234
v 0.513415 0.037222 1.557784
v 0.455383 0.037222 1.573333
v 0.486482 0.037222 1.604433
v 0.461235 0.160788 1.529603
v 0.442752 0.160788 1.548086
v 0.435987 0.160788 1.573333
v 0.442752 0.160788 1.598581
v 0.461235 0.160788 1.617063
v 0.486482 0.160788 1.623828
v 0.511729 0.160788 1.617063
v 0.530212 0.160788 1.598581
v 0.536977 0.160788 1.573333
v 0.530212 0.160788 1.548086
v 0.486482 0.160788 1.522838
v 0.511729 0.160788 1.529603
v 0.508734 0.052179 1.568492
v 0.508734 0.052179 1.578174
v 0.526868 0.123766 1.568492
v 0.526868 0.123766 1.578174
v 0.528763 0.034620 1.568492
v 0.560630 0.055963 1.568492
v 0.546010 0.035958 1.568492
v 0.560630 0.055963 1.578174
v 0.528763 0.034620 1.578174
v 0.546010 0.035958 1.578174
v 0.551386 0.128174 1.568492
v 0.551386 0.128174 1.578174
v 0.513913 0.062216 1.578174
v 0.513913 0.062216 1.568492
v 0.525650 0.112852 1.578174
v 0.525650 0.112852 1.568492
v 0.544517 0.046805 1.578174
v 0.552527 0.058043 1.578174
v 0.552527 0.058043 1.568492
v 0.544517 0.046805 1.568492
v 0.532333 0.045444 1.578174
v 0.532333 0.045444 1.568492
v 0.547528 0.117389 1.578174
v 0.547528 0.117389 1.568492
v 0.486482 0.000000 1.521221
v 0.512538 0.000000 1.528203
v 0.531612 0.000000 1.547277
v 0.538594 0.000000 1.573333
v 0.531612 0.000000 1.599389
v 0.512538 0.000000 1.618464
v 0.486482 0.000000 1.625446
v 0.460426 0.000000 1.618464
v 0.441351 0.000000 1.599389
v 0.434370 0.000000 1.573333
v 0.441351 0.000000 1.547277
v 0.460426 0.000000 1.528203
v 0.486482 0.138995 1.523765
v 0.536050 0.138995 1.573333
v 0.529409 0.138995 1.548549
v 0.443555 0.138995 1.548549
v 0.436914 0.138995 1.573333
v 0.461698 0.138995 1.616261
v 0.486482 0.138995 1.622901
v 0.529409 0.138995 1.598117
v 0.461698 0.138995 1.530406
v 0.511266 0.138995 1.530406
v 0.443555 0.138995 1.598117
v 0.511266 0.138995 1.616261
v 0.504270 0.016737 1.542524
v 0.504270 0.016737 1.604143
v 0.455672 0.016737 1.591121
v 0.455672 0.016737 1.555545
v 0.468694 0.016737 1.604143
v 0.522058 0.016737 1.573333
v 0.450906 0.016737 1.573333
v 0.486482 0.016737 1.537757
v 0.468694 0.016737 1.542524
v 0.517292 0.016737 1.591121
v 0.517292 0.016737 1.555545
v 0.486482 0.016737 1.608909
v 0.486482 0.160788 1.515163
v 0.457397 0.160788 1.522957
v 0.436105 0.160788 1.544248
v 0.428312 0.160788 1.573333
v 0.436105 0.160788 1.602418
v 0.457397 0.160788 1.623710
v 0.486482 0.160788 1.631503
v 0.515567 0.160788 1.623710
v 0.536858 0.160788 1.602418
v 0.544652 0.160788 1.573333
v 0.536858 0.160788 1.544248
v 0.515567 0.160788 1.522957
v 0.486482 0.156078 1.525978
v 0.462804 0.156078 1.532323
v 0.445471 0.156078 1.549656
v 0.439127 0.156078 1.573333
v 0.445471 0.156078 1.597011
v 0.462804 0.156078 1.614344
v 0.486482 0.156078 1.620688
v 0.510159 0.156078 1.614344
v 0.527493 0.156078 1.597011
v 0.533837 0.156078 1.573333
v 0.527493 0.156078 1.549656
v 0.510159 0.156078 1.532323
v 0.556865 0.073926 1.568492
v 0.556824 0.090565 1.568492
v 0.556824 0.090565 1.578174
v 0.556865 0.073926 1.578174
v 0.548988 0.073317 1.578174
v 0.549015 0.091268 1.578174
v 0.549015 0.091268 1.568492
v 0.548988 0.073317 1.568492
v 0.568504 0.106085 1.568492
v 0.568854 0.117179 1.568492
v 0.568854 0.117179 1.578174
v 0.568504 0.106085 1.578174
v 0.558089 0.105620 1.578174
v 0.556961 0.113381 1.578174
v 0.556961 0.113381 1.568492
v 0.558089 0.105620 1.568492
vn 0.6919 0.2065 -0.6919
vn 0.9451 0.2065 0.2532
vn -0.2822 0.9169 -0.2822
vn -0.9451 0.2065 0.2532
vn -0.6919 0.2065 0.6919
vn -0.2532 0.2065 0.9451
vn 0.2532 0.2065 0.9451
vn 0.2532 0.2065 -0.9451
vn 0.6919 0.2065 0.6919
vn -0.9451 0.2065 -0.2532
vn -0.2532 0.2065 -0.9451
vn -0.6919 0.2065 -0.6919
vn 0.9451 0.2065 -0.2532
vn -0.2545 0.1810 -0.9500
vn 0.9500 0.1810 -0.2545
vn 0.2822 0.9169 -0.2822
vn -0.3855 0.9169 0.1033
vn -0.2822 0.9169 0.2822
vn 0.1033 0.9169 -0.3855
vn 0.5945 0.5414 -0.5945
vn 0.2822 0.9169 0.2822
vn 0.3855 0.9169 -0.1033
vn 0.6954 0.1810 -0.6954
vn 0.9500 0.1810 0.2545
vn -0.9500 0.1810 0.2545
vn 0.8074 -0.5901 -0.0000
vn 0.0774 -0.9970 -0.0000
vn -0.6592 -0.7520 -0.0000
vn -0.1770 0.9842 -0.0000
vn -0.8143 0.5804 -0.0000
vn -0.1110 0.9938 -0.0000
vn 0.6733 0.7394 -0.0000
vn 0.2031 -0.9792 -0.0000
vn -0.0000 -0.0000 -1.0000
vn -0.0000 -0.0000 1.0000
vn -0.0000 -1.0000 -0.0000
vn 0.6965 -0.1727 -0.6965
vn 0.2549 -0.1727 -0.9514
vn -0.9514 -0.1727 0.2549
vn -0.9514 -0.1727 -0.2549
vn -0.2549 -0.1727 -0.9514
vn -0.2549 -0.1727 0.9514
vn -0.6965 -0.1727 -0.6965
vn 0.9514 -0.1727 -0.2549
vn 0.2549 -0.1727 0.9514
vn 0.9514 -0.1727 0.2549
vn -0.6965 -0.1727 0.6965
vn 0.6954 0.1810 0.6954
vn -0.2418 -0.3563 -0.9026
vn -0.6954 0.1810 -0.6954
vn 0.2418 -0.3563 -0.9026
vn 0.9026 -0.3563 -0.2418
vn 0.1033 0.9169 0.3855
vn -0.1033 0.9169 0.3855
vn 0.9026 -0.3563 0.2418
vn 0.6607 -0.3563 -0.6607
vn -0.1033 0.9169 -0.3855
vn -0.6607 -0.3563 -0.6607
vn -0.3855 0.9169 -0.1033
vn -0.9026 -0.3563 -0.2418
vn -0.9500 0.1810 -0.2545
vn -0.9026 -0.3563 0.2418
vn -0.6954 0.1810 0.6954
vn -0.2418 -0.3563 0.9026
vn -0.2545 0.1810 0.9500
vn 0.2545 0.1810 -0.9500
vn -0.6607 -0.3563 0.6607
vn 0.2545 0.1810 0.9500
vn 0.2418 -0.3563 0.9026
vn 0.6607 -0.3563 0.6607
vn 0.3855 0.9169 0.1033
vn -0.0000 1.0000 -0.0000
vn -0.2176 0.5414 0.8121
vn 0.2176 0.5414 0.8121
vn -0.8121 0.5414 -0.2176
vn 0.2176 0.5414 -0.8121
vn 0.8121 0.5414 0.2176
vn 0.5945 0.5414 0.5945
vn -0.8121 0.5414 0.2176
vn -0.2176 0.5414 -0.8121
vn 0.8121 0.5414 -0.2176
vn -0.5945 0.5414 0.5945
vn -0.5945 0.5414 -0.5945
vn 1.0000 0.0025 -0.0000
vn -1.0000 0.0015 -0.0000
vn 0.9787 0.2051 -0.0000
vn -0.9742 -0.2257 -0.0000
vn 0.9995 -0.0316 -0.0000
vn -0.9896 -0.1438 -0.0000
vn 0.5327 0.8463 -0.0000
vn 0.7990 -0.6013 -0.0000
vn -0.3911 -0.9204 -0.0000
vn -0.8453 0.5344 -0.0000
vn 0.6965 -0.1727 0.6965
vt 0.123269 0.874388
vt 0.123267 0.874382
vt 0.123394 0.873633
vt 0.123392 0.873636
vt 0.123754 0.872446
vt 0.123750 0.872450
vt 0.123583 0.871825
vt 0.123585 0.871824
vt 0.121415 0.873077
vt 0.121415 0.873076
vt 0.121871 0.873532
vt 0.121870 0.873532
vt 0.121415 0.871824
vt 0.121417 0.871825
vt 0.121250 0.872450
vt 0.121248 0.872450
vt 0.121874 0.871365
vt 0.121875 0.871367
vt 0.122500 0.871197
vt 0.122500 0.871200
vt 0.123126 0.871365
vt 0.123125 0.871367
vt 0.122884 0.874077
vt 0.122880 0.874076
vt 0.121417 0.873075
vt 0.121875 0.873533
vt 0.122885 0.874078
vt 0.123394 0.873633
vt 0.123392 0.873637
vt 0.123755 0.872445
vt 0.123750 0.872450
vt 0.123269 0.874390
vt 0.121415 0.871824
vt 0.121247 0.872450
vt 0.121873 0.871365
vt 0.121960 0.871523
vt 0.121563 0.871920
vt 0.123585 0.871824
vt 0.123127 0.871365
vt 0.123267 0.874382
vt 0.123583 0.871825
vt 0.113333 0.873333
vt 0.123125 0.871367
vt 0.122500 0.871200
vt 0.123267 0.874382
vt 0.123394 0.873633
vt 0.122880 0.874076
vt 0.121417 0.871825
vt 0.121250 0.872450
vt 0.121875 0.873533
vt 0.122500 0.871200
vt 0.121875 0.871367
vt 0.123750 0.872450
vt 0.123125 0.871367
vt 0.123583 0.871825
vt 0.122500 0.871197
vt 0.122774 0.873897
vt 0.121999 0.873452
vt 0.121567 0.873013
vt 0.121418 0.872465
vt 0.122502 0.871378
vt 0.123045 0.871525
vt 0.123441 0.871929
vt 0.123571 0.872530
vt 0.123332 0.873476
vt 0.123161 0.874077
vt 0.847414 0.352814
vt 0.821149 0.340566
vt 0.804528 0.316828
vt 0.802002 0.287959
vt 0.814249 0.261694
vt 0.837988 0.245072
vt 0.866857 0.242547
vt 0.893121 0.254794
vt 0.909743 0.278533
vt 0.912269 0.307402
vt 0.900021 0.333666
vt 0.876283 0.350288
vt 0.113333 0.873333
vt 0.113333 0.873333
vt 0.113333 0.873333
vt 0.113333 0.873334
vt 0.113333 0.873333
vt 0.113333 0.873334
vt 0.113333 0.873333
vt 0.113333 0.873334
vt 0.113333 0.873334
s 0
usemtl palette1
f 85/1/1 15/2/1 22/3/1 95/4/1
f 90/5/2 20/6/2 17/7/2 94/8/2
f 5/9/3 88/10/3 93/11/3 2/12/3
f 87/13/4 16/14/4 23/15/4 91/16/4
f 89/17/5 18/18/5 16/14/5 87/13/5
f 96/19/6 24/20/6 18/18/6 89/17/6
f 86/21/7 14/22/7 24/20/7 96/19/7
f 92/23/8 21/24/8 15/2/8 85/1/8
f 94/8/9 17/7/9 14/22/9 86/21/9
f 91/16/10 23/15/10 19/25/10 88/10/10
f 93/11/11 13/26/11 21/24/11 92/23/11
f 88/10/12 19/25/12 13/26/12 93/11/12
f 95/4/13 22/3/13 20/6/13 90/5/13
f 72/26/14 2/12/14 9/27/14 61/24/14
f 63/28/15 10/29/15 3/30/15 64/31/15
f 8/32/16 85/1/16 95/4/16 10/29/16
f 6/33/17 87/13/17 91/16/17 11/34/17
f 4/35/18 89/17/18 87/13/18 6/33/18
f 9/27/19 92/23/19 85/1/19 8/32/19
f 29/36/20 114/36/20 113/37/20 28/37/20
f 1/38/21 94/8/21 86/21/21 7/39/21
f 10/29/22 95/4/22 90/5/22 3/30/22
f 62/40/23 8/32/23 10/29/23 63/28/23
f 64/31/24 3/30/24 1/38/24 65/41/24
f 69/14/25 6/33/25 11/34/25 70/15/25
f 44/42/26 46/42/26 43/42/26 42/42/26
f 46/42/27 45/42/27 41/42/27 43/42/27
f 37/42/28 41/42/28 45/42/28 38/42/28
f 47/42/29 39/42/29 40/42/29 48/42/29
f 54/42/30 55/42/30 56/42/30 53/42/30
f 53/42/31 56/42/31 58/42/31 57/42/31
f 50/42/32 49/42/32 57/42/32 58/42/32
f 60/42/33 59/42/33 51/42/33 52/42/33
f 39/42/34 47/42/34 60/42/34 52/42/34
f 45/42/35 46/42/35 53/42/35 57/42/35
f 48/42/35 40/42/35 51/42/35 59/42/35
f 43/42/34 41/42/34 58/42/34 56/42/34
f 46/42/35 44/42/35 54/42/35 53/42/35
f 41/42/34 37/42/34 50/42/34 58/42/34
f 42/42/34 43/42/34 56/42/34 55/42/34
f 38/42/35 45/42/35 57/42/35 49/42/35
f 61/24/36 62/40/36 63/28/36 64/31/36 65/41/36 66/43/36 67/44/36 68/18/36 69/14/36 70/15/36 71/25/36 72/26/36
f 22/3/37 15/2/37 82/45/37 75/46/37
f 15/2/38 21/24/38 73/47/38 82/45/38
f 23/15/39 16/14/39 83/48/39 77/49/39
f 19/25/40 23/15/40 77/49/40 76/25/40
f 21/24/41 13/26/41 81/50/41 73/47/41
f 18/18/42 24/20/42 79/51/42 78/52/42
f 13/26/43 19/25/43 76/25/43 81/50/43
f 20/6/44 22/3/44 75/46/44 74/53/44
f 24/20/45 14/22/45 84/54/45 79/51/45
f 17/7/46 20/6/46 74/53/46 80/55/46
f 16/14/47 18/18/47 78/52/47 83/48/47
f 65/41/48 1/38/48 7/39/48 66/43/48
f 81/50/49 98/26/49 97/24/49 73/47/49
f 71/25/50 5/9/50 2/12/50 72/26/50
f 73/47/51 97/24/51 108/40/51 82/45/51
f 75/46/52 107/28/52 106/31/52 74/53/52
f 7/39/53 86/21/53 96/19/53 12/56/53
f 12/56/54 96/19/54 89/17/54 4/35/54
f 74/53/55 106/31/55 105/41/55 80/55/55
f 82/45/56 108/40/56 107/28/56 75/46/56
f 2/12/57 93/11/57 92/23/57 9/27/57
f 76/25/58 99/25/58 98/26/58 81/50/58
f 11/34/59 91/16/59 88/10/59 5/9/59
f 77/49/60 100/15/60 99/25/60 76/25/60
f 70/15/61 11/34/61 5/9/61 71/25/61
f 83/48/62 101/14/62 100/15/62 77/49/62
f 68/18/63 4/35/63 6/33/63 69/14/63
f 79/51/64 103/44/64 102/18/64 78/52/64
f 67/44/65 12/56/65 4/35/65 68/18/65
f 61/24/66 9/27/66 8/32/66 62/40/66
f 78/52/67 102/18/67 101/14/67 83/48/67
f 66/43/68 7/39/68 12/56/68 67/44/68
f 84/54/69 104/43/69 103/44/69 79/51/69
f 80/55/70 105/41/70 104/43/70 84/54/70
f 3/30/71 90/5/71 94/8/71 1/38/71
f 35/57/72 97/24/72 98/26/72 25/58/72
f 25/58/72 98/26/72 99/25/72 26/59/72
f 27/60/72 100/15/72 101/14/72 28/37/72
f 28/37/72 101/14/72 102/18/72 29/36/72
f 29/36/72 102/18/72 103/44/72 30/61/72
f 30/61/72 103/44/72 104/43/72 31/62/72
f 31/62/72 104/43/72 105/41/72 32/63/72
f 32/63/72 105/41/72 106/31/72 33/64/72
f 33/64/72 106/31/72 107/28/72 34/65/72
f 34/65/72 107/28/72 108/40/72 36/66/72
f 36/66/72 108/40/72 97/24/72 35/57/72
f 26/59/72 99/25/72 100/15/72 27/60/72
f 35/57/73 109/57/73 120/66/73 36/66/73
f 25/58/74 110/58/74 109/57/74 35/57/74
f 33/64/75 118/64/75 117/63/75 32/63/75
f 30/61/76 115/61/76 114/36/76 29/36/76
f 27/60/77 112/60/77 111/59/77 26/59/77
f 26/59/78 111/59/78 110/58/78 25/58/78
f 34/65/79 119/65/79 118/64/79 33/64/79
f 31/62/80 116/62/80 115/61/80 30/61/80
f 28/37/81 113/37/81 112/60/81 27/60/81
f 36/66/82 120/66/82 119/65/82 34/65/82
f 32/63/83 117/63/83 116/62/83 31/62/83
f 122/42/84 123/42/84 124/79/84 121/80/84
f 128/81/85 125/82/85 126/83/85 127/82/85
f 125/82/35 124/79/35 123/42/35 126/83/35
f 121/80/34 128/81/34 127/82/34 122/42/34
f 42/42/86 121/80/86 124/79/86 44/42/86
f 121/80/34 42/42/34 55/42/34 128/81/34
f 44/42/35 124/79/35 125/82/35 54/42/35
f 55/42/87 54/42/87 125/82/87 128/81/87
f 130/42/88 131/42/88 132/82/88 129/84/88
f 136/85/89 133/86/89 134/82/89 135/87/89
f 131/42/35 134/82/35 133/86/35 132/82/35
f 135/87/34 130/42/34 129/84/34 136/85/34
f 47/42/34 130/42/34 135/87/34 60/42/34
f 129/84/34 122/42/34 127/82/34 136/85/34
f 48/42/90 131/42/90 130/42/90 47/42/90
f 132/82/91 123/42/91 122/42/91 129/84/91
f 131/42/35 48/42/35 59/42/35 134/82/35
f 123/42/35 132/82/35 133/86/35 126/83/35
f 59/42/92 60/42/92 135/87/92 134/82/92
f 133/86/93 136/85/93 127/82/93 126/83/93
f 14/22/94 17/7/94 80/55/94 84/54/94
usemtl main_textures
f 109/67/72 110/68/72 111/69/72 112/70/72 113/71/72 114/72/72 115/73/72 116/74/72 117/75/72 118/76/72 119/77/72 120/78/72
