# Blender 4.5.2 LTS
# www.blender.org
mtllib tray_small.mtl
o tray_small
v 0.473333 -0.018189 0.459783
v 0.530108 -0.018189 0.474996
v 0.571671 -0.018189 0.516558
v 0.586883 -0.018189 0.573333
v 0.571671 -0.018189 0.630108
v 0.530108 -0.018189 0.671670
v 0.473333 -0.018189 0.686883
v 0.416558 -0.018189 0.671670
v 0.374996 -0.018189 0.630108
v 0.359783 -0.018189 0.573333
v 0.374996 -0.018189 0.516558
v 0.416558 -0.018189 0.474996
v 0.416355 -0.006920 0.474645
v 0.374645 -0.006920 0.516355
v 0.359378 -0.006920 0.573333
v 0.374645 -0.006920 0.630311
v 0.416355 -0.006920 0.672022
v 0.473333 -0.006920 0.687289
v 0.530311 -0.006920 0.672022
v 0.572022 -0.006920 0.630311
v 0.587289 -0.006920 0.573333
v 0.572022 -0.006920 0.516355
v 0.473333 -0.006920 0.459378
v 0.530311 -0.006920 0.474645
v 0.312987 0.000000 0.573333
v 0.612198 0.000000 0.493160
v 0.553507 0.000000 0.712198
v 0.334469 0.000000 0.653507
v 0.473333 0.000000 0.412987
v 0.553507 0.000000 0.434469
v 0.334469 0.000000 0.493160
v 0.393160 0.000000 0.434469
v 0.633680 0.000000 0.573333
v 0.612198 0.000000 0.653507
v 0.473333 0.000000 0.733680
v 0.393160 0.000000 0.712198
v 0.391288 0.013921 0.431226
v 0.473333 0.013921 0.409242
v 0.331227 0.013921 0.491288
v 0.309243 0.013921 0.573333
v 0.331227 0.013921 0.655379
v 0.391288 0.013921 0.715440
v 0.473333 0.013921 0.737424
v 0.555379 0.013921 0.715440
v 0.615440 0.013921 0.655379
v 0.637424 0.013921 0.573333
v 0.615440 0.013921 0.491288
v 0.555379 0.013921 0.431226
v 0.473333 0.017306 0.395451
v 0.473333 0.012671 0.397195
v 0.385264 0.012671 0.420793
v 0.384392 0.017306 0.419282
v 0.320793 0.012671 0.485264
v 0.319283 0.017306 0.484392
v 0.297195 0.012671 0.573333
v 0.295451 0.017306 0.573333
v 0.320793 0.012671 0.661403
v 0.319283 0.017306 0.662275
v 0.385264 0.012671 0.725874
v 0.384392 0.017306 0.727384
v 0.473333 0.012671 0.749472
v 0.473333 0.017306 0.751216
v 0.561403 0.012671 0.725874
v 0.562275 0.017306 0.727384
v 0.625874 0.012671 0.661403
v 0.627384 0.017306 0.662275
v 0.649472 0.012671 0.573333
v 0.651216 0.017306 0.573333
v 0.625874 0.012671 0.485264
v 0.627384 0.017306 0.484392
v 0.561403 0.012671 0.420793
v 0.562275 0.017306 0.419282
vn -0.0000 -1.0000 -0.0000
vn -0.0000 1.0000 -0.0000
vn -0.0966 -0.9277 0.3606
vn 0.3606 -0.9277 0.0966
vn -0.2640 -0.9277 -0.2640
vn 0.0966 -0.9277 -0.3606
vn -0.2640 -0.9277 0.2640
vn 0.2640 -0.9277 0.2640
vn -0.0966 -0.9277 -0.3606
vn 0.2640 -0.9277 -0.2640
vn -0.3606 -0.9277 0.0966
vn 0.0966 -0.9277 0.3606
vn 0.3606 -0.9277 -0.0966
vn -0.3606 -0.9277 -0.0966
vn -0.1023 0.9186 0.3818
vn -0.2795 0.9186 0.2795
vn -0.3818 0.9186 0.1023
vn -0.3818 0.9186 -0.1023
vn -0.2795 0.9186 -0.2795
vn -0.1023 0.9186 -0.3818
vn 0.1023 0.9186 -0.3818
vn 0.2795 0.9186 -0.2795
vn 0.3818 0.9186 -0.1023
vn 0.3818 0.9186 0.1023
vn 0.2795 0.9186 0.2795
vn 0.1023 0.9186 0.3818
vn -0.2433 -0.3415 -0.9079
vn -0.6646 -0.3415 -0.6646
vn -0.9079 -0.3415 -0.2433
vn -0.9079 -0.3415 0.2433
vn -0.6646 -0.3415 0.6646
vn -0.2433 -0.3415 0.9079
vn 0.2433 -0.3415 0.9079
vn 0.6646 -0.3415 0.6646
vn 0.9079 -0.3415 0.2433
vn 0.9079 -0.3415 -0.2433
vn 0.6646 -0.3415 -0.6646
vn 0.2433 -0.3415 -0.9079
vn 0.0637 0.9692 0.2379
vn 0.1654 -0.7692 -0.6172
vn -0.1654 -0.7692 -0.6172
vn -0.0637 0.9692 0.2379
vn -0.4518 -0.7692 -0.4518
vn 0.1741 0.9692 0.1741
vn 0.2379 0.9692 0.0637
vn -0.6172 -0.7692 -0.1654
vn -0.6172 -0.7692 0.1654
vn 0.2379 0.9692 -0.0637
vn -0.4518 -0.7692 0.4518
vn 0.1741 0.9692 -0.1741
vn -0.1654 -0.7692 0.6172
vn 0.0637 0.9692 -0.2379
vn -0.0637 0.9692 -0.2379
vn 0.1654 -0.7692 0.6172
vn 0.4518 -0.7692 0.4518
vn -0.1741 0.9692 -0.1741
vn 0.6172 -0.7692 0.1654
vn -0.2379 0.9692 -0.0637
vn -0.2379 0.9692 0.0637
vn 0.6172 -0.7692 -0.1654
vn 0.4518 -0.7692 -0.4518
vn -0.1741 0.9692 0.1741
vt 0.122880 0.874076
vt 0.123267 0.874382
vt 0.123394 0.873633
vt 0.123750 0.872450
vt 0.123583 0.871825
vt 0.123125 0.871367
vt 0.122500 0.871200
vt 0.121875 0.871367
vt 0.121417 0.871825
vt 0.121250 0.872450
vt 0.121417 0.873075
vt 0.121875 0.873533
vt 0.122795 0.873936
vt 0.121974 0.873471
vt 0.121534 0.873026
vt 0.121382 0.872461
vt 0.121531 0.871900
vt 0.121941 0.871489
vt 0.122502 0.871339
vt 0.123062 0.871491
vt 0.123472 0.871906
vt 0.123609 0.872515
vt 0.123347 0.873510
vt 0.123184 0.874140
vt 0.123240 0.874304
vt 0.122853 0.874031
vt 0.123379 0.873594
vt 0.123705 0.872471
vt 0.123547 0.871851
vt 0.123105 0.871407
vt 0.122501 0.871244
vt 0.121896 0.871406
vt 0.121454 0.871849
vt 0.121292 0.872454
vt 0.121455 0.873059
vt 0.121907 0.873513
vt 0.122880 0.874078
vt 0.121874 0.873535
vt 0.121881 0.873529
vt 0.122874 0.874067
vt 0.121415 0.873076
vt 0.121425 0.873072
vt 0.121248 0.872450
vt 0.121258 0.872451
vt 0.121415 0.871824
vt 0.121425 0.871830
vt 0.121874 0.871365
vt 0.121879 0.871375
vt 0.122500 0.871198
vt 0.122500 0.871209
vt 0.123126 0.871365
vt 0.123121 0.871375
vt 0.123585 0.871824
vt 0.123576 0.871830
vt 0.123752 0.872450
vt 0.123741 0.872454
vt 0.123395 0.873634
vt 0.123391 0.873625
vt 0.123268 0.874384
vt 0.123262 0.874366
s 0
usemtl palette1
f 1/1/1 2/2/1 3/3/1 4/4/1 5/5/1 6/6/1 7/7/1 8/8/1 9/9/1 10/10/1 11/11/1 12/12/1
f 23/13/2 13/14/2 14/15/2 15/16/2 16/17/2 17/18/2 18/19/2 19/20/2 20/21/2 21/22/2 22/23/2 24/24/2
f 7/7/3 35/7/3 36/8/3 8/8/3
f 4/4/4 33/4/4 34/5/4 5/5/4
f 11/11/5 31/11/5 32/12/5 12/12/5
f 1/1/6 29/1/6 30/2/6 2/2/6
f 8/8/7 36/8/7 28/9/7 9/9/7
f 5/5/8 34/5/8 27/6/8 6/6/8
f 12/12/9 32/12/9 29/1/9 1/1/9
f 2/2/10 30/2/10 26/3/10 3/3/10
f 9/9/11 28/9/11 25/10/11 10/10/11
f 6/6/12 27/6/12 35/7/12 7/7/12
f 3/3/13 26/3/13 33/4/13 4/4/13
f 10/10/14 25/10/14 31/11/14 11/11/14
f 23/13/15 24/24/15 48/25/15 38/26/15
f 24/24/16 22/23/16 47/27/16 48/25/16
f 22/23/17 21/22/17 46/28/17 47/27/17
f 21/22/18 20/21/18 45/29/18 46/28/18
f 20/21/19 19/20/19 44/30/19 45/29/19
f 19/20/20 18/19/20 43/31/20 44/30/20
f 18/19/21 17/18/21 42/32/21 43/31/21
f 17/18/22 16/17/22 41/33/22 42/32/22
f 16/17/23 15/16/23 40/34/23 41/33/23
f 15/16/24 14/15/24 39/35/24 40/34/24
f 14/15/25 13/14/25 37/36/25 39/35/25
f 13/14/26 23/13/26 38/26/26 37/36/26
f 50/37/27 51/38/27 52/39/27 49/40/27
f 51/38/28 53/41/28 54/42/28 52/39/28
f 53/41/29 55/43/29 56/44/29 54/42/29
f 55/43/30 57/45/30 58/46/30 56/44/30
f 57/45/31 59/47/31 60/48/31 58/46/31
f 59/47/32 61/49/32 62/50/32 60/48/32
f 61/49/33 63/51/33 64/52/33 62/50/33
f 63/51/34 65/53/34 66/54/34 64/52/34
f 65/53/35 67/55/35 68/56/35 66/54/35
f 67/55/36 69/57/36 70/58/36 68/56/36
f 69/57/37 71/59/37 72/60/37 70/58/37
f 71/59/38 50/37/38 49/40/38 72/60/38
f 37/36/39 38/26/39 49/40/39 52/39/39
f 29/1/40 50/37/40 71/59/40 30/2/40
f 32/12/41 51/38/41 50/37/41 29/1/41
f 38/26/42 48/25/42 72/60/42 49/40/42
f 31/11/43 53/41/43 51/38/43 32/12/43
f 39/35/44 37/36/44 52/39/44 54/42/44
f 40/34/45 39/35/45 54/42/45 56/44/45
f 25/10/46 55/43/46 53/41/46 31/11/46
f 28/9/47 57/45/47 55/43/47 25/10/47
f 41/33/48 40/34/48 56/44/48 58/46/48
f 36/8/49 59/47/49 57/45/49 28/9/49
f 42/32/50 41/33/50 58/46/50 60/48/50
f 35/7/51 61/49/51 59/47/51 36/8/51
f 43/31/52 42/32/52 60/48/52 62/50/52
f 44/30/53 43/31/53 62/50/53 64/52/53
f 27/6/54 63/51/54 61/49/54 35/7/54
f 34/5/55 65/53/55 63/51/55 27/6/55
f 45/29/56 44/30/56 64/52/56 66/54/56
f 33/4/57 67/55/57 65/53/57 34/5/57
f 46/28/58 45/29/58 66/54/58 68/56/58
f 47/27/59 46/28/59 68/56/59 70/58/59
f 26/3/60 69/57/60 67/55/60 33/4/60
f 30/2/61 71/59/61 69/57/61 26/3/61
f 48/25/62 47/27/62 70/58/62 72/60/62
